<?xml version="1.0" encoding="iso-8859-1"?>
<!-- Generator: Adobe Illustrator 19.0.0, SVG Export Plug-In . SVG Version: 6.00 Build 0)  -->
<svg version="1.1" id="Layer_1" xmlns="http://www.w3.org/2000/svg" xmlns:xlink="http://www.w3.org/1999/xlink" x="0px" y="0px"
	 viewBox="0 0 290.458 290.458" style="enable-background:new 0 0 290.458 290.458;" xml:space="preserve">
<g>
	<g>
		<g>
			<path d="M279.451,9.037L276.943,0L142.257,37.411V23.269h-9.375v16.748l-4.688,1.303v-8.677h-9.375v11.278l-4.688,1.303v-3.206
				h-9.375v4.688v9.375v60.938c-4.167,0-7.875,1.856-10.448,4.744c-18.253,0.417-33.928,11.306-41.292,26.892
				c-2.47-2.156-5.667-3.511-9.197-3.511c-7.753,0-14.062,6.309-14.062,14.063c0,2.587-2.105,4.688-4.688,4.688H11.007v4.688
				c0,46.477,26.447,91.88,65.625,115.088v6.787h112.5v-6.787c39.178-23.189,65.625-68.592,65.625-115.088v-4.688h-23.438v-37.5
				h-9.375v37.5h-0.277c-0.577-5.194-2.114-10.097-4.411-14.55v-27.637h-9.375v15.52c-7.472-6.712-17.311-10.833-28.12-10.833
				c-8.672,0-18.755,2.634-23.442,7.139c0-0.413,0-0.82,0-1.177l0.005-1.275c0-7.753-6.309-14.063-14.063-14.063
				c-7.753,0-14.063,6.309-14.063,14.063c0,2.587-2.105,4.688-4.687,4.688s-4.688-2.1-4.688-4.688c0-4.139-1.833-7.828-4.688-10.406
				V56.081h4.688v60.938h9.375V56.081h4.688v9.375h9.375v-9.375h135.938v-9.375H143.842L279.451,9.037z M39.132,159.206
				c0-2.587,2.105-4.688,4.688-4.688c2.583,0,4.688,2.1,4.688,4.688c0,1.148,0.178,2.245,0.436,3.314
				c-0.061,0.459-0.155,0.909-0.202,1.373H38.27C38.795,162.422,39.132,160.856,39.132,159.206z M245.288,173.269
				c-1.856,45.614-30.618,89.32-71.301,107.812H91.782c-40.683-18.506-69.445-62.217-71.302-107.812H245.288z M75.77,163.894
				c0.525-1.472,0.863-3.037,0.863-4.688c0-2.587,2.105-4.688,4.688-4.688s4.688,2.1,4.688,4.688c0,1.65,0.338,3.216,0.862,4.688
				H75.77z M113.27,163.894c0.525-1.472,0.863-3.037,0.863-4.688c0-2.587,2.105-4.688,4.688-4.688s4.688,2.1,4.688,4.688
				c0,1.65,0.338,3.216,0.862,4.688H113.27z M179.757,135.768c16.496,0.001,30.15,12.254,32.438,28.126H175.07
				c-2.583,0-4.688-2.1-4.688-4.688c0-7.594-6.061-13.763-13.598-14.016C162.709,139.373,170.818,135.768,179.757,135.768z
				 M151.633,159.207c-0.001-2.588,2.104-4.688,4.687-4.688c2.583,0,4.688,2.1,4.688,4.688c0,1.65,0.337,3.216,0.863,4.688h-11.105
				C151.296,162.423,151.633,160.858,151.633,159.207z M123.507,145.144c7.753,0,14.062-6.309,14.062-14.063
				c0-2.588,2.105-4.688,4.688-4.688s4.688,2.1,4.688,4.688l-0.005,1.205c-0.023,2.906,0,5.869,1.294,8.358
				c-5.62,6.333-9.38,14.339-10.373,23.189c-0.103,0.009-0.188,0.061-0.291,0.061c-2.583,0-4.688-2.1-4.688-4.688
				c0-7.753-6.309-14.063-14.062-14.063c-7.753,0-14.063,6.309-14.063,14.063c0,2.587-2.105,4.688-4.688,4.688
				s-4.688-2.1-4.688-4.688c0-7.753-6.309-14.063-14.063-14.063c-7.754,0-14.063,6.309-14.063,14.063
				c0,2.587-2.105,4.688-4.688,4.688c-1.73,0-3.183-0.989-3.998-2.386c3.323-17.306,18.553-30.427,36.811-30.427h4.688
				c0-2.588,2.105-4.688,4.688-4.688s4.688,2.1,4.688,4.688C109.445,138.834,115.754,145.144,123.507,145.144z"/>
			<rect x="39.132" y="187.331" width="51.563" height="9.375"/>
			<rect x="100.07" y="187.331" width="9.375" height="9.375"/>
			<rect x="118.82" y="187.331" width="9.375" height="9.375"/>
		</g>
	</g>
</g>
<g>
</g>
<g>
</g>
<g>
</g>
<g>
</g>
<g>
</g>
<g>
</g>
<g>
</g>
<g>
</g>
<g>
</g>
<g>
</g>
<g>
</g>
<g>
</g>
<g>
</g>
<g>
</g>
<g>
</g>
</svg>
